<svg width="230" height="50" xmlns="http://www.w3.org/2000/svg" fill="none">

 <g>
  <title>BillingYou</title>
  <path id="svg_1" fill="#01B4C2" d="m37.6161,16.3306c0.3736,0.0004 0.7379,-0.1159 1.042,-0.3325c0.3041,-0.2165 0.5327,-0.5225 0.6539,-0.8752c0.1212,-0.3527 0.1289,-0.7344 0.022,-1.0917c-0.1068,-0.3572 -0.323,-0.6722 -0.6181,-0.9008l-16.1212,-12.51488c-0.3144,-0.24414 -0.7014,-0.37669 -1.0998,-0.37669c-0.3984,0 -0.7854,0.13255 -1.0998,0.37669l-16.12119,12.51488c-0.29512,0.2286 -0.51124,0.5436 -0.61813,0.9008c-0.10689,0.3573 -0.09919,0.739 0.02202,1.0917c0.12121,0.3527 0.34985,0.6587 0.65395,0.8752c0.30409,0.2166 0.66842,0.3329 1.04199,0.3325l7.14706,0c-0.2006,9.6168 -2.0295,14.2366 -4.01777,16.5572c-1.88976,2.2062 -4.11269,2.6102 -6.4413,3.0304l-0.60007,0.109c-0.42937,0.0803 -0.81457,0.3143 -1.08313,0.6582c-0.26856,0.3439 -0.40197,0.7739 -0.37512,1.2091c0.02685,0.4351 0.21211,0.8455 0.52092,1.1539c0.3088,0.3084 0.71987,0.4935 1.15587,0.5206c4.92233,0.3057 12.0551,-0.1538 18.0217,-3.624c5.7911,-3.3683 10.2441,-9.4344 10.7098,-19.6144l7.2044,0z" clip-rule="evenodd" fill-rule="evenodd"/>
  <text stroke="#000" font-weight="bold" xml:space="preserve" text-anchor="start" font-family="'Arial'" font-size="44" stroke-width="0" id="svg_12" y="37.11297" x="47.22888" fill="#000000">BillingYou</Text>
 </g>
</svg>
